<svg width="505" height="393" viewBox="0 0 505 393" fill="none" xmlns="http://www.w3.org/2000/svg">
<path d="M0 350.844C0 374.083 18.8498 392.938 42.0833 392.938H462.917C486.15 392.938 505 374.083 505 350.844V196.5H0V350.844ZM168.333 291.211C168.333 285.423 173.068 280.688 178.854 280.688H298.09C303.877 280.688 308.611 285.423 308.611 291.211V326.289C308.611 332.077 303.877 336.812 298.09 336.812H178.854C173.068 336.812 168.333 332.077 168.333 326.289V291.211ZM56.1111 291.211C56.1111 285.423 60.8455 280.688 66.6319 280.688H129.757C135.543 280.688 140.278 285.423 140.278 291.211V326.289C140.278 332.077 135.543 336.812 129.757 336.812H66.6319C60.8455 336.812 56.1111 332.077 56.1111 326.289V291.211ZM505 42.1562V84.25H0V42.1562C0 18.917 18.8498 0.0625 42.0833 0.0625H462.917C486.15 0.0625 505 18.917 505 42.1562Z" fill="white" fill-opacity="0.05"/>
</svg>
