<svg width="114" height="91" viewBox="0 0 114 91" fill="none" xmlns="http://www.w3.org/2000/svg">
<path d="M113.892 77.063C112.396 73.4372 108.228 71.7132 104.594 73.2239L100.657 74.8591L93.764 56.7479C102.296 50.5272 105.307 38.9212 99.9093 29.5901L84.4837 2.8411C83.0587 0.370592 80.0128 -0.660268 77.3587 0.423912L56.999 8.84852L36.6393 0.423912C33.9853 -0.678041 30.9393 0.370592 29.5143 2.8411L14.0887 29.5901C8.70933 38.9212 11.7018 50.5272 20.234 56.7302L13.3406 74.8413L9.40402 73.2061C5.77027 71.6954 1.61996 73.4194 0.105895 77.0452C-0.196917 77.7739 0.14152 78.6093 0.871833 78.9114L29.7815 90.8907C30.5118 91.1929 31.3312 90.8552 31.634 90.1265C33.1303 86.5007 31.4203 82.3417 27.7865 80.8309L23.85 79.1958L30.8681 60.7825C31.6518 60.8714 32.4356 61.0136 33.2015 61.0136C42.4106 61.0136 50.9071 55.1306 53.4009 45.8528L56.999 32.4516L60.5971 45.8528C63.0909 55.1306 71.5875 61.0136 80.7965 61.0136C81.5625 61.0136 82.3462 60.8714 83.13 60.7825L90.1303 79.1958L86.1937 80.8309C82.56 82.3417 80.8321 86.5007 82.3462 90.1265C82.649 90.8552 83.4862 91.1929 84.1987 90.8907L113.126 78.9114C113.839 78.6093 114.195 77.7917 113.892 77.063ZM49.1437 28.8081L29.1759 20.5434L35.6775 9.27508L52.5103 16.2423L49.1437 28.8081ZM64.8543 28.8081L61.4878 16.2423L78.3206 9.27508L84.8222 20.5434L64.8543 28.8081Z" fill="white"/>
</svg>
