<svg width="545" height="477" viewBox="0 0 545 477" fill="none" xmlns="http://www.w3.org/2000/svg">
<path d="M340.838 225.514L287.935 331.32C281.548 344.2 263.027 343.774 257.172 330.682L196.605 196.241L164.671 272.562H64.5061L258.769 471.083C266.326 478.854 278.568 478.854 286.125 471.083L480.494 272.562H364.362L340.838 225.514ZM504.232 44.6631L501.677 42.0019C446.858 -13.9883 357.124 -13.9883 302.198 42.0019L272.5 72.4453L242.802 42.1084C187.983 -13.9883 98.1428 -13.9883 43.3234 42.1084L40.7687 44.6631C-11.0701 97.6728 -13.3055 182.084 32.9982 238.5H141.998L180.212 146.744C185.96 133.013 205.333 132.693 211.507 146.318L273.458 283.952L325.616 179.742C331.897 167.182 349.779 167.182 356.06 179.742L385.439 238.5H512.002C558.306 182.084 556.07 97.6728 504.232 44.6631Z" fill="white" fill-opacity="0.04"/>
</svg>
